PathFileType	4	(X/Y/Z)	24_1_6_p0_0-253.trc
DataRate	CameraRate	NumFrames	NumMarkers	Units	OrigDataRate	OrigDataStartFrame	OrigNumFrames
60.0	60.0	5	27	m	60.0	31	254
Frame#	Time	RHip			RKnee			RAnkle			RBigToe			RSmallToe			RHeel			LHip			LKnee			LAnkle			LBigToe			LSmallToe			LHeel			Neck			Head			Nose			RShoulder			RElbow			RWrist			RThumb			RIndex			RPinky			LShoulder			LElbow			LWrist			LThumb			LIndex			LPinky			
		X1	Y1	Z1	X2	Y2	Z2	X3	Y3	Z3	X4	Y4	Z4	X5	Y5	Z5	X6	Y6	Z6	X7	Y7	Z7	X8	Y8	Z8	X9	Y9	Z9	X10	Y10	Z10	X11	Y11	Z11	X12	Y12	Z12	X13	Y13	Z13	X14	Y14	Z14	X15	Y15	Z15	X16	Y16	Z16	X17	Y17	Z17	X18	Y18	Z18	X19	Y19	Z19	X20	Y20	Z20	X21	Y21	Z21	X22	Y22	Z22	X23	Y23	Z23	X24	Y24	Z24	X25	Y25	Z25	X26	Y26	Z26	X27	Y27	Z27	
31	0.5166666666666667	0.4766817151009612	0.47953078661461396	0.8721826563443933	0.4754831127821252	0.5552584165230366	1.2966278013580992	0.4361826463777343	0.6839390622080108	1.697697573960923	0.39839165470004195	0.4755752489940272	1.6835103185208016	0.4584284870054853	0.49214333358169765	1.6810420143789468	0.435308755415173	0.7247216501956664	1.7443637151072624	0.28451849437478444	0.462621554703715	0.8726190179798363	0.25676167980175196	0.5140944633519775	1.272444993242359	0.21455478354447224	0.6554788486805836	1.6872698881758266	0.23377124708081687	0.45532205571968287	1.6735300973562262	0.18260053408681107	0.5360127853464794	1.6968130689160914	0.23285015440487106	0.6936723029973012	1.7217402628429892	0.37876294831140545	0.39812028293003704	0.3628397228593562	0.4091972234284734	0.31704424441611945	0.1301831680239196	0.39883807283892686	0.28586350591373544	0.2568585786776072	0.5354051320962	0.39520451911333765	0.4418002819482262	0.5788002164745568	0.44895453951427267	0.6997934970678361	0.4732645963191168	0.3377239849247291	0.8785707736615073	0.35103382526586646	0.3298719726205091	0.9427334449176787	0.33777557971210015	0.37090509075340505	0.9916189052411105	0.39081705750587	0.4430737620702077	1.0325798555224563	0.2362823884405048	0.4221904619960417	0.4531612797279142	0.1865211644908615	0.4508717556797869	0.6886814658236831	0.30733694036524223	0.3604673463444471	0.8632754799484486	0.3671310606590257	0.2879641845070217	0.9138241236095311	0.3742001276929226	0.2900845015070636	0.9388705704111535	0.34421534358220984	0.35313702504741423	0.9640028879549305
32	0.5333333333333333	0.47663379993541827	0.47963647381506996	0.8721548194830482	0.47492011025236675	0.556827414748683	1.2928617530597584	0.4352797282720477	0.6812289342460321	1.6922577554829716	0.39833736853665436	0.47592472561508614	1.6837852901090966	0.45837825333859816	0.49224261284792137	1.6811604456182803	0.43528282818155367	0.7245196456086197	1.7441788345721823	0.2840837316644854	0.4636461182320893	0.8689302746040426	0.260290430461537	0.5160803859922806	1.2726895460614076	0.21508359194055632	0.6541252279417277	1.6907301023782175	0.23370288699712374	0.4554603485838731	1.6735509047388422	0.18250487832374013	0.5362064184648451	1.6969522397146481	0.23278183514174358	0.6931030582107346	1.7215910840567703	0.3787163000011031	0.39809450175029953	0.36282217833819846	0.40916659081711404	0.31705195878627773	0.13018626710997688	0.3988028950730243	0.2858966433740248	0.2568783496697802	0.535383237134054	0.3952815471170298	0.4418460272500442	0.5759654374696944	0.43761947599441325	0.6982831346936988	0.473296858694719	0.3375752963847317	0.8785226431870967	0.35109701734088694	0.32957911598157885	0.9426495334891758	0.338538418889216	0.37006425061599546	0.9882036541466194	0.3888558492612473	0.4303164803952275	1.0291802345129577	0.23589339069048218	0.4224200761613368	0.45625288573999934	0.18593223500577813	0.44911086057644073	0.6888810812168481	0.3072860540705264	0.360466285933108	0.863296685320016	0.3613229176109334	0.2997389011054374	0.9166955779571615	0.37093267432685123	0.2886824431051796	0.9388375464203573	0.3502454229492525	0.3410953360096201	0.9569773595269353
33	0.55	0.4765851151639483	0.4796634759942743	0.8721914553070224	0.4754425503647378	0.5554609558032483	1.2963501875100307	0.44100371249091747	0.6655220222177924	1.6846807779480488	0.4001187763214026	0.48931723903620666	1.6900221302630791	0.45852359848259877	0.4926658166008506	1.6813378568923907	0.43531973060843404	0.72438137295449	1.7441217295547864	0.28446064636735846	0.4629121432167755	0.8726632142048268	0.25705071863952234	0.5133208848852528	1.2759321293771888	0.21510981469744012	0.6540816821750014	1.6907292800508271	0.23483733542107849	0.4681952628742019	1.6794717999904423	0.18258283319003812	0.5362228976502641	1.6969283210598107	0.23463922050366165	0.7065093813383939	1.7273193718685111	0.37870062001142446	0.39814340265149695	0.3628250910483441	0.40914910905038737	0.31694128026147966	0.13016695356445154	0.3988229616026861	0.285681959476555	0.25690860273138905	0.5353500318368645	0.39529281864746574	0.44174576816178535	0.5759149767650313	0.43763584168901715	0.6983069102920215	0.4732303087014611	0.337709321164122	0.878574417199611	0.34577950538918084	0.34102111326724827	0.9457963808497318	0.33868943373965216	0.3701987820481759	0.9882184476762127	0.38875981826824413	0.4304928396489174	1.0290593336135758	0.23589771481218114	0.4223901152364994	0.456255503383242	0.18591622391025997	0.4493048811727165	0.688848640405735	0.3055708520690586	0.3488433810029682	0.8609586243012654	0.3610849850796045	0.2996414299006098	0.9165849349343962	0.37400634095346225	0.289855012890668	0.9386929099288341	0.3466224382348406	0.3396741179027281	0.9563727061702274
34	0.5666666666666667	0.47596564032806243	0.4777686786370894	0.8679009408329824	0.47493802148246816	0.556818730272583	1.2927998069770716	0.4353148140691011	0.6813958154942047	1.692283232751525	0.3998393823897108	0.48946057760494904	1.6903783021946517	0.45830379438596985	0.4928708442139907	1.6815783782877936	0.43541818231324114	0.7246748501140783	1.7443763121498161	0.2845242255317436	0.46255814432901726	0.8725143111861562	0.2570658331561051	0.5131211292659791	1.2758859556749236	0.21506660861601182	0.654128540194955	1.6908697544599807	0.23363402958750823	0.4553308559667235	1.673620364339941	0.1824728809477101	0.5360093127703656	1.6968746929179646	0.23315805616599702	0.7073283424660859	1.7332592661282276	0.37451834350633106	0.3968122997278913	0.36295593175506374	0.40529066467738617	0.31468675613337604	0.13042653011764432	0.3988430817544848	0.28585517931841536	0.256857893573335	0.5352968194963454	0.3951681698859282	0.4416578986220978	0.5758515590724036	0.43767574736148573	0.6983012499310354	0.47324147627109003	0.3377863257659336	0.8785975373826898	0.35159858023578533	0.32918822706909623	0.9403106870181762	0.33890029083387513	0.37025527532457053	0.9882090758818247	0.3888017488278458	0.43033359727990844	1.0289557909965994	0.23591013526964222	0.42221935266499305	0.4562594764473652	0.18610033863997527	0.45085438727604643	0.6923999787523086	0.30611328673724936	0.3478096414980168	0.8647952116069336	0.3615977198846773	0.2990629022471295	0.919468383557969	0.3742068019604532	0.2900846951374798	0.9390827601919163	0.3472282553346961	0.3420745254760587	0.9618039993338148
35	0.5833333333333334	0.4764965478937337	0.4796174948402424	0.872201165940842	0.4749928159126999	0.5567469321648968	1.292800132525306	0.4353181905475134	0.6814498273947565	1.6922727503542738	0.39984794370299687	0.4888451800567971	1.68995249059693	0.4582664491328477	0.492482967869464	1.6813753865167085	0.4353775554871082	0.7246810338417529	1.7443541769649014	0.28494422654418733	0.4643545448953039	0.876801964966347	0.25704146284957036	0.5133026521950027	1.2760430386848673	0.21504363830157516	0.6540528087308437	1.6908657495878743	0.23478527789488965	0.4682343150310239	1.6797105950744962	0.18245209756813408	0.5361602940237612	1.696991105083545	0.2282371195786953	0.688016152335674	1.7198263088865215	0.3745281052641414	0.39676136387476396	0.3629273172777604	0.4052970351219174	0.3148378573101643	0.1303862208033414	0.39879275387310914	0.28571358365401256	0.2568385105251077	0.5353036366976069	0.3951076525780328	0.4417092337400873	0.5758143231303599	0.4376260823893532	0.6983032574977501	0.4732792066015587	0.337628315412841	0.8786050977198427	0.35173988533296763	0.3290854797012494	0.9402850751452351	0.3389472891318705	0.370431997579633	0.9883442943438306	0.38873435812234486	0.43056195184687057	1.0287471511188695	0.2358867774455773	0.4222544327981729	0.45626362135073506	0.18474645038940762	0.43840898549461227	0.6907626995705438	0.30607319678240824	0.3477402071615003	0.8648738584587448	0.3615010675096748	0.29903984428346037	0.9194514893973663	0.3741935039927072	0.2901720002797175	0.9389649346344237	0.3507986767835105	0.34318389311584796	0.9617382984438111
